<svg height="512pt" viewBox="0 -70 512.00021 512" width="512pt" xmlns="http://www.w3.org/2000/svg"><path d="m224.953125 47.382812h-140.726563c-4.449218 0-8.671874 1.972657-11.519531 5.390626-2.851562 3.417968-4.035156 7.921874-3.238281 12.300781.277344 1.511719 7.019531 37.457031 30.132812 73.667969 31.40625 49.207031 77.761719 75.21875 134.058594 75.21875l72.308594-50.71875v-34.84375c0-44.671876-36.34375-81.015626-81.015625-81.015626zm0 0" fill="#6276a6"/><path d="m343.769531 0c-37.386719 0-67.800781 30.414062-67.800781 67.800781v123.859375h-260.96875c-5.136719 0-9.914062 2.625-12.664062 6.960938-2.753907 4.335937-3.09375 9.777344-.90625 14.425781l46.59375 99.011719c17.234374 36.625 54.527343 60.292968 95.003906 60.292968h163.542968c57.898438 0 105-47.105468 105-105v-199.550781c0-37.386719-30.417968-67.800781-67.800781-67.800781zm0 0" fill="#f3f5fa"/><path d="m343.769531 0c-37.386719 0-67.800781 30.414062-67.800781 67.800781v123.859375h-33.902344v180.6875h64.503906c57.894532 0 105-47.101562 105-105v-199.546875c0-37.386719-30.417968-67.800781-67.800781-67.800781zm0 0" fill="#c7d3ed"/><path d="m411.570312 156.46875v-88.667969c0-37.386719-30.417968-67.800781-67.800781-67.800781-37.386719 0-67.800781 30.414062-67.800781 67.800781v88.667969zm0 0" fill="#00cbd4"/><path d="m349.117188 53.800781h-9.53125c-8.28125 0-15 6.714844-15 15 0 8.285157 6.71875 15 15 15h9.53125c8.28125 0 15-6.714843 15-15 0-8.285156-6.714844-15-15-15zm0 0" fill="#006387"/><path d="m206.800781 86.03125h-179.414062c-4.449219 0-8.667969 1.976562-11.519531 5.394531-2.851563 3.417969-4.035157 7.921875-3.238282 12.300781.347656 1.894532 8.800782 46.949219 37.835938 92.441407 39.246094 61.492187 97.144531 93.996093 167.4375 93.996093l88.066406-60.539062v-44.425781c0-54.679688-44.484375-99.167969-99.167969-99.167969zm0 0" fill="#9cafd9"/><path d="m188.203125 162.332031c0-8.285156-6.71875-15-15-15h-147.414063c3.628907 9.265625 8.148438 19.453125 13.726563 30h133.6875c8.28125 0 15-6.714843 15-15zm0 0" fill="#fff"/><path d="m188.203125 219.902344c0-8.28125-6.71875-15-15-15h-116.875c7.726563 11.042968 16.097656 21.050781 25.082031 30h91.792969c8.28125 0 15-6.714844 15-15zm0 0" fill="#fff"/><path d="m497 12.277344h-50.113281c-8.285157 0-15 6.714844-15 15v102.363281c0 8.28125 6.714843 15 15 15h50.113281c8.285156 0 15-6.71875 15-15v-102.363281c0-8.285156-6.714844-15-15-15zm0 0" fill="#f3f5fa"/><path d="m428.519531 52.800781h-31.949219c-8.285156 0-15 6.714844-15 15 0 8.285157 6.714844 15 15 15h31.949219c8.28125 0 15-6.714843 15-15 0-8.285156-6.71875-15-15-15zm0 0" fill="#ffcebf"/></svg>